<svg width="107" height="48" viewBox="0 0 107 48" fill="none" xmlns="http://www.w3.org/2000/svg">
<path fill-rule="evenodd" clip-rule="evenodd" d="M17.1429 16H14.8571V26.1205L11.0659 16.7369L8.94666 17.5932L12.8361 27.2198L5.49442 19.8782L3.87818 21.4944L10.9148 28.5311L1.79586 24.5469L0.880734 26.6414L10.5297 30.8571H0V33.1429H10.5297L0.880738 37.3586L1.79586 39.4531L10.9148 35.469L3.87818 42.5056L5.49442 44.1218L12.8361 36.7802L8.94666 46.4069L11.0659 47.263L14.8571 37.8795V48H17.1429V37.8795L20.9341 47.263L23.0533 46.4069L19.164 36.7802L26.5056 44.1218L28.1218 42.5056L21.0851 35.469L30.2042 39.4531L31.1192 37.3586L21.4704 33.1429H32V30.8571H21.4702L31.1192 26.6414L30.2042 24.5469L21.0851 28.5311L28.1218 21.4944L26.5056 19.8782L19.164 27.2198L23.0533 17.5932L20.9341 16.7369L17.1429 26.1205V16Z" fill="#E94D35"/>
<path d="M58.73 28.03L55.49 41.26C55.33 41.86 55.11 42.3 54.83 42.58C54.55 42.86 54.17 43 53.69 43H52.67L48.92 31.69L45.05 43H44.03C43.57 43 43.19 42.86 42.89 42.58C42.59 42.3 42.37 41.86 42.23 41.26L38.96 28.03H41.24L44.03 40.6L48.08 28.45H48.86C49.44 28.45 49.83 28.77 50.03 29.41L53.69 40.51L56.45 28.03H58.73ZM67.1481 43.24C65.4681 43.24 64.1181 42.75 63.0981 41.77C62.0781 40.77 61.5681 39.45 61.5681 37.81V33.52C61.5681 31.8 62.0781 30.42 63.0981 29.38C64.1181 28.32 65.4681 27.79 67.1481 27.79H69.6081C71.2081 27.79 72.4981 28.3 73.4781 29.32C74.4581 30.34 74.9481 31.69 74.9481 33.37V36.01H63.7281V37.81C63.7281 38.85 64.0381 39.7 64.6581 40.36C65.2981 41 66.1281 41.32 67.1481 41.32H69.4281C70.4281 41.32 71.2381 41.05 71.8581 40.51C72.4781 39.95 72.7881 39.21 72.7881 38.29H74.8881C74.8881 39.77 74.3881 40.97 73.3881 41.89C72.3881 42.79 71.0681 43.24 69.4281 43.24H67.1481ZM72.7881 34.15V33.37C72.7881 32.27 72.4981 31.39 71.9181 30.73C71.3381 30.05 70.5681 29.71 69.6081 29.71H67.1481C66.1281 29.71 65.2981 30.06 64.6581 30.76C64.0381 31.46 63.7281 32.38 63.7281 33.52V34.15H72.7881ZM85.1909 43.24C84.5309 43.24 83.8309 43.04 83.0909 42.64C82.3509 42.22 81.7809 41.7 81.3809 41.08V43H79.2809V22H81.4409V29.8C81.8809 29.18 82.4409 28.69 83.1209 28.33C83.8209 27.97 84.5409 27.79 85.2809 27.79H87.4109C88.4309 27.79 89.3309 28.03 90.1109 28.51C90.9109 28.97 91.5309 29.63 91.9709 30.49C92.4309 31.33 92.6609 32.3 92.6609 33.4V37.27C92.6609 38.45 92.4309 39.49 91.9709 40.39C91.5309 41.29 90.9009 41.99 90.0809 42.49C89.2809 42.99 88.3509 43.24 87.2909 43.24H85.1909ZM87.2309 41.32C88.1909 41.32 88.9709 40.95 89.5709 40.21C90.1909 39.45 90.5009 38.47 90.5009 37.27V33.4C90.5009 32.3 90.2009 31.41 89.6009 30.73C89.0209 30.05 88.2709 29.71 87.3509 29.71H85.3409C84.3009 29.71 83.4109 30.09 82.6709 30.85C81.9309 31.61 81.5209 32.61 81.4409 33.85V37.51C81.4809 38.21 81.6809 38.85 82.0409 39.43C82.4009 40.01 82.8609 40.47 83.4209 40.81C83.9809 41.15 84.5709 41.32 85.1909 41.32H87.2309ZM97.7359 43.3C97.2559 43.3 96.8659 43.15 96.5659 42.85C96.2659 42.55 96.1159 42.16 96.1159 41.68C96.1159 41.2 96.2659 40.81 96.5659 40.51C96.8659 40.21 97.2559 40.06 97.7359 40.06C98.2159 40.06 98.6059 40.21 98.9059 40.51C99.2059 40.81 99.3559 41.2 99.3559 41.68C99.3559 42.16 99.2059 42.55 98.9059 42.85C98.6059 43.15 98.2159 43.3 97.7359 43.3Z" fill="#161513"/>
</svg>
