<svg width="198" height="48" viewBox="0 0 198 48" fill="none" xmlns="http://www.w3.org/2000/svg">
<path fill-rule="evenodd" clip-rule="evenodd" d="M17.1429 16H14.8571V26.1205L11.0659 16.7369L8.94666 17.5932L12.8361 27.2198L5.49442 19.8782L3.87818 21.4944L10.9148 28.5311L1.79586 24.5469L0.880734 26.6414L10.5297 30.8571H0V33.1429H10.5297L0.880738 37.3586L1.79586 39.4531L10.9148 35.469L3.87818 42.5056L5.49442 44.1218L12.8361 36.7802L8.94666 46.4069L11.0659 47.263L14.8571 37.8795V48H17.1429V37.8795L20.9341 47.263L23.0533 46.4069L19.164 36.7802L26.5056 44.1218L28.1218 42.5056L21.0851 35.469L30.2042 39.4531L31.1192 37.3586L21.4704 33.1429H32V30.8571H21.4702L31.1192 26.6414L30.2042 24.5469L21.0851 28.5311L28.1218 21.4944L26.5056 19.8782L19.164 27.2198L23.0533 17.5932L20.9341 16.7369L17.1429 26.1205V16Z" fill="#E94D35"/>
<path d="M44.93 43.24C43.91 43.24 43 43 42.2 42.52C41.4 42.04 40.78 41.37 40.34 40.51C39.9 39.65 39.68 38.65 39.68 37.51V33.91C39.68 32.71 39.91 31.65 40.37 30.73C40.83 29.79 41.48 29.07 42.32 28.57C43.16 28.05 44.12 27.79 45.2 27.79H47.42C48.1 27.79 48.75 27.95 49.37 28.27C50.01 28.59 50.52 29.03 50.9 29.59V22H53.06V43H50.96V40.78C50.5 41.52 49.9 42.12 49.16 42.58C48.42 43.02 47.7 43.24 47 43.24H44.93ZM46.94 41.32C47.58 41.32 48.2 41.12 48.8 40.72C49.4 40.3 49.89 39.76 50.27 39.1C50.65 38.44 50.86 37.76 50.9 37.06V33.28C50.76 32.22 50.36 31.36 49.7 30.7C49.06 30.04 48.28 29.71 47.36 29.71H45.26C44.24 29.71 43.41 30.1 42.77 30.88C42.15 31.64 41.84 32.65 41.84 33.91V37.51C41.84 38.63 42.13 39.55 42.71 40.27C43.31 40.97 44.07 41.32 44.99 41.32H46.94ZM63.1637 43.24C61.4837 43.24 60.1337 42.72 59.1137 41.68C58.0937 40.64 57.5837 39.27 57.5837 37.57V33.46C57.5837 31.76 58.0937 30.39 59.1137 29.35C60.1537 28.31 61.5237 27.79 63.2237 27.79H65.6837C67.3837 27.79 68.7437 28.31 69.7637 29.35C70.8037 30.39 71.3237 31.76 71.3237 33.46V37.57C71.3237 39.27 70.8037 40.64 69.7637 41.68C68.7238 42.72 67.3438 43.24 65.6237 43.24H63.1637ZM65.6237 41.32C66.7037 41.32 67.5638 40.98 68.2038 40.3C68.8438 39.6 69.1638 38.69 69.1638 37.57V33.46C69.1638 32.34 68.8438 31.44 68.2038 30.76C67.5638 30.06 66.7237 29.71 65.6837 29.71H63.2237C62.1837 29.71 61.3437 30.06 60.7037 30.76C60.0637 31.44 59.7437 32.34 59.7437 33.46V37.57C59.7437 38.71 60.0537 39.62 60.6737 40.3C61.2937 40.98 62.1237 41.32 63.1637 41.32H65.6237ZM74.1258 42.04L83.0058 29.86H74.4858V28.03H86.1258V28.99L77.2458 41.17H85.9758V43H74.1258V42.04ZM94.4888 43.24C92.8088 43.24 91.4588 42.75 90.4388 41.77C89.4188 40.77 88.9088 39.45 88.9088 37.81V33.52C88.9088 31.8 89.4188 30.42 90.4388 29.38C91.4588 28.32 92.8088 27.79 94.4888 27.79H96.9488C98.5488 27.79 99.8388 28.3 100.819 29.32C101.799 30.34 102.289 31.69 102.289 33.37V36.01H91.0688V37.81C91.0688 38.85 91.3788 39.7 91.9988 40.36C92.6388 41 93.4688 41.32 94.4888 41.32H96.7688C97.7688 41.32 98.5788 41.05 99.1988 40.51C99.8188 39.95 100.129 39.21 100.129 38.29H102.229C102.229 39.77 101.729 40.97 100.729 41.89C99.7288 42.79 98.4088 43.24 96.7688 43.24H94.4888ZM100.129 34.15V33.37C100.129 32.27 99.8388 31.39 99.2588 30.73C98.6788 30.05 97.9088 29.71 96.9488 29.71H94.4888C93.4688 29.71 92.6388 30.06 91.9988 30.76C91.3788 31.46 91.0688 32.38 91.0688 33.52V34.15H100.129ZM106.622 28.03H108.722V30.25C109.182 29.53 109.782 28.94 110.522 28.48C111.262 28.02 112.002 27.79 112.742 27.79H114.782C116.162 27.79 117.272 28.26 118.112 29.2C118.972 30.14 119.402 31.37 119.402 32.89V43H117.242V32.83C117.242 31.91 117.012 31.16 116.552 30.58C116.092 30 115.482 29.71 114.722 29.71H112.802C111.862 29.71 111.002 30.08 110.222 30.82C109.462 31.56 108.982 32.51 108.782 33.67V43H106.622V28.03ZM123.75 34.39H131.7V36.31H123.75V34.39ZM154.668 28.03L151.428 41.26C151.268 41.86 151.048 42.3 150.768 42.58C150.488 42.86 150.108 43 149.628 43H148.608L144.858 31.69L140.988 43H139.968C139.508 43 139.128 42.86 138.828 42.58C138.528 42.3 138.308 41.86 138.168 41.26L134.898 28.03H137.178L139.968 40.6L144.018 28.45H144.798C145.378 28.45 145.768 28.77 145.968 29.41L149.628 40.51L152.388 28.03H154.668ZM163.086 43.24C161.406 43.24 160.056 42.75 159.036 41.77C158.016 40.77 157.506 39.45 157.506 37.81V33.52C157.506 31.8 158.016 30.42 159.036 29.38C160.056 28.32 161.406 27.79 163.086 27.79H165.546C167.146 27.79 168.436 28.3 169.416 29.32C170.396 30.34 170.886 31.69 170.886 33.37V36.01H159.666V37.81C159.666 38.85 159.976 39.7 160.596 40.36C161.236 41 162.066 41.32 163.086 41.32H165.366C166.366 41.32 167.176 41.05 167.796 40.51C168.416 39.95 168.726 39.21 168.726 38.29H170.826C170.826 39.77 170.326 40.97 169.326 41.89C168.326 42.79 167.006 43.24 165.366 43.24H163.086ZM168.726 34.15V33.37C168.726 32.27 168.436 31.39 167.856 30.73C167.276 30.05 166.506 29.71 165.546 29.71H163.086C162.066 29.71 161.236 30.06 160.596 30.76C159.976 31.46 159.666 32.38 159.666 33.52V34.15H168.726ZM181.129 43.24C180.469 43.24 179.769 43.04 179.029 42.64C178.289 42.22 177.719 41.7 177.319 41.08V43H175.219V22H177.379V29.8C177.819 29.18 178.379 28.69 179.059 28.33C179.759 27.97 180.479 27.79 181.219 27.79H183.349C184.369 27.79 185.269 28.03 186.049 28.51C186.849 28.97 187.469 29.63 187.909 30.49C188.369 31.33 188.599 32.3 188.599 33.4V37.27C188.599 38.45 188.369 39.49 187.909 40.39C187.469 41.29 186.839 41.99 186.019 42.49C185.219 42.99 184.289 43.24 183.229 43.24H181.129ZM183.169 41.32C184.129 41.32 184.909 40.95 185.509 40.21C186.129 39.45 186.439 38.47 186.439 37.27V33.4C186.439 32.3 186.139 31.41 185.539 30.73C184.959 30.05 184.209 29.71 183.289 29.71H181.279C180.239 29.71 179.349 30.09 178.609 30.85C177.869 31.61 177.459 32.61 177.379 33.85V37.51C177.419 38.21 177.619 38.85 177.979 39.43C178.339 40.01 178.799 40.47 179.359 40.81C179.919 41.15 180.509 41.32 181.129 41.32H183.169ZM193.674 43.3C193.194 43.3 192.804 43.15 192.504 42.85C192.204 42.55 192.054 42.16 192.054 41.68C192.054 41.2 192.204 40.81 192.504 40.51C192.804 40.21 193.194 40.06 193.674 40.06C194.154 40.06 194.544 40.21 194.844 40.51C195.144 40.81 195.294 41.2 195.294 41.68C195.294 42.16 195.144 42.55 194.844 42.85C194.544 43.15 194.154 43.3 193.674 43.3Z" fill="#161513"/>
</svg>
